<svg xmlns="http://www.w3.org/2000/svg" viewBox="0 0 1200 420" width="1200" height="420" role="img" aria-label="Hyperwisper — local voice-to-text dictation for Windows">
  <title>Hyperwisper</title>
  <defs>
    <radialGradient id="glow" cx="50%" cy="50%" r="50%">
      <stop offset="0%"  stop-color="#D6995C" stop-opacity="0.20"/>
      <stop offset="55%" stop-color="#D6995C" stop-opacity="0.05"/>
      <stop offset="100%" stop-color="#D6995C" stop-opacity="0"/>
    </radialGradient>
    <linearGradient id="hair" x1="0" y1="0" x2="1" y2="0">
      <stop offset="0%"   stop-color="#312B26" stop-opacity="0"/>
      <stop offset="50%"  stop-color="#312B26" stop-opacity="1"/>
      <stop offset="100%" stop-color="#312B26" stop-opacity="0"/>
    </linearGradient>
    <linearGradient id="sheen" x1="0" y1="0" x2="0" y2="1">
      <stop offset="0%"   stop-color="#FFF5E6" stop-opacity="0.05"/>
      <stop offset="100%" stop-color="#FFF5E6" stop-opacity="0"/>
    </linearGradient>
  </defs>

  <rect width="1200" height="420" fill="#141210"/>
  <ellipse cx="250" cy="150" rx="620" ry="420" fill="url(#glow)"/>
  <rect width="1200" height="420" fill="url(#sheen)"/>

  <!-- brandmark -->
  <g transform="translate(88 74) scale(3.5)" stroke="#D6995C" stroke-width="2.2" stroke-linecap="round" stroke-linejoin="round" fill="none">
    <path d="M3 12h2" />
    <path d="M7 8v8" />
    <path d="M10 5v14" />
    <path d="M13 9v6" />
    <path d="M16 7v10" />
    <path d="M19 11v2" />
    <path d="M22 12h-1" />
  </g>

  <!-- wordmark -->
  <text x="184" y="140" font-family="'Segoe UI', -apple-system, BlinkMacSystemFont, 'Helvetica Neue', Inter, system-ui, sans-serif" font-size="62" font-weight="600" letter-spacing="-2.4" fill="#F4F0EC">hyperwisper</text>

  <!-- tagline -->
  <text x="90" y="205" font-family="'Segoe UI', -apple-system, BlinkMacSystemFont, 'Helvetica Neue', Inter, system-ui, sans-serif" font-size="25" font-weight="400" letter-spacing="-0.4" fill="#C9BFB4">Press a key. Speak. Your words appear — anywhere in Windows.</text>
  <text x="90" y="243" font-family="'Segoe UI', -apple-system, BlinkMacSystemFont, 'Helvetica Neue', Inter, system-ui, sans-serif" font-size="19" font-weight="400" letter-spacing="-0.2" fill="#988F86">Local Whisper transcription. No cloud, no account, no subscription.</text>

  <!-- chips -->
  <g font-family="'Cascadia Code', 'SF Mono', Consolas, 'Liberation Mono', monospace" font-size="14" letter-spacing="0.2">
    <g>
      <rect x="90"  y="284" width="152" height="34" rx="17" fill="#1D1916" stroke="#312B26"/>
      <circle cx="112" cy="301" r="4" fill="#9CC072"/>
      <text x="126" y="306" fill="#C9BFB4">100% offline</text>
    </g>
    <g>
      <rect x="254" y="284" width="176" height="34" rx="17" fill="#1D1916" stroke="#312B26"/>
      <circle cx="276" cy="301" r="4" fill="#D6995C"/>
      <text x="290" y="306" fill="#C9BFB4">whisper.cpp</text>
    </g>
    <g>
      <rect x="442" y="284" width="168" height="34" rx="17" fill="#1D1916" stroke="#312B26"/>
      <circle cx="464" cy="301" r="4" fill="#D6995C"/>
      <text x="478" y="306" fill="#C9BFB4">Vulkan GPU</text>
    </g>
    <g>
      <rect x="622" y="284" width="112" height="34" rx="17" fill="#1D1916" stroke="#312B26"/>
      <circle cx="644" cy="301" r="4" fill="#9CC072"/>
      <text x="658" y="306" fill="#C9BFB4">MIT</text>
    </g>
  </g>

  <!-- hairline -->
  <rect x="0" y="344" width="1200" height="1" fill="url(#hair)"/>

  <!-- waveform strip -->
  <g>
    <rect x="60.0" y="383.0" width="4" height="4.0" rx="2.00" fill="#D6995C" opacity="0.300"/>
    <rect x="69.6" y="381.8" width="4" height="6.4" rx="2.00" fill="#D6995C" opacity="0.384"/>
    <rect x="79.2" y="383.0" width="4" height="4.0" rx="2.00" fill="#D6995C" opacity="0.340"/>
    <rect x="88.8" y="379.0" width="4" height="12.1" rx="2.00" fill="#D6995C" opacity="0.457"/>
    <rect x="98.4" y="377.6" width="4" height="14.9" rx="2.00" fill="#D6995C" opacity="0.493"/>
    <rect x="108.0" y="379.8" width="4" height="10.4" rx="2.00" fill="#D6995C" opacity="0.434"/>
    <rect x="117.6" y="379.6" width="4" height="10.9" rx="2.00" fill="#D6995C" opacity="0.441"/>
    <rect x="127.2" y="378.6" width="4" height="12.7" rx="2.00" fill="#D6995C" opacity="0.465"/>
    <rect x="136.8" y="379.7" width="4" height="10.7" rx="2.00" fill="#D6995C" opacity="0.439"/>
    <rect x="146.4" y="377.8" width="4" height="14.4" rx="2.00" fill="#D6995C" opacity="0.487"/>
    <rect x="156.0" y="375.0" width="4" height="20.0" rx="2.00" fill="#D6995C" opacity="0.560"/>
    <rect x="165.6" y="380.7" width="4" height="8.7" rx="2.00" fill="#D6995C" opacity="0.412"/>
    <rect x="175.2" y="374.1" width="4" height="21.8" rx="2.00" fill="#D6995C" opacity="0.583"/>
    <rect x="184.8" y="376.7" width="4" height="16.6" rx="2.00" fill="#D6995C" opacity="0.515"/>
    <rect x="194.4" y="376.7" width="4" height="16.6" rx="2.00" fill="#D6995C" opacity="0.515"/>
    <rect x="204.0" y="380.6" width="4" height="8.9" rx="2.00" fill="#D6995C" opacity="0.415"/>
    <rect x="213.6" y="379.8" width="4" height="10.3" rx="2.00" fill="#D6995C" opacity="0.434"/>
    <rect x="223.2" y="377.6" width="4" height="14.8" rx="2.00" fill="#D6995C" opacity="0.492"/>
    <rect x="232.8" y="378.0" width="4" height="13.9" rx="2.00" fill="#D6995C" opacity="0.480"/>
    <rect x="242.4" y="371.0" width="4" height="28.1" rx="2.00" fill="#D6995C" opacity="0.664"/>
    <rect x="252.0" y="373.2" width="4" height="23.5" rx="2.00" fill="#D6995C" opacity="0.605"/>
    <rect x="261.6" y="367.9" width="4" height="34.1" rx="2.00" fill="#D6995C" opacity="0.742"/>
    <rect x="271.2" y="371.9" width="4" height="26.1" rx="2.00" fill="#D6995C" opacity="0.639"/>
    <rect x="280.8" y="365.1" width="4" height="39.9" rx="2.00" fill="#D6995C" opacity="0.817"/>
    <rect x="290.4" y="373.9" width="4" height="22.1" rx="2.00" fill="#D6995C" opacity="0.587"/>
    <rect x="300.0" y="367.8" width="4" height="34.4" rx="2.00" fill="#D6995C" opacity="0.746"/>
    <rect x="309.6" y="369.2" width="4" height="31.6" rx="2.00" fill="#D6995C" opacity="0.710"/>
    <rect x="319.2" y="373.6" width="4" height="22.9" rx="2.00" fill="#D6995C" opacity="0.596"/>
    <rect x="328.8" y="373.8" width="4" height="22.4" rx="2.00" fill="#D6995C" opacity="0.590"/>
    <rect x="338.4" y="368.0" width="4" height="34.1" rx="2.00" fill="#D6995C" opacity="0.742"/>
    <rect x="348.0" y="368.6" width="4" height="32.8" rx="2.00" fill="#D6995C" opacity="0.726"/>
    <rect x="357.6" y="378.0" width="4" height="14.0" rx="2.00" fill="#D6995C" opacity="0.482"/>
    <rect x="367.2" y="373.2" width="4" height="23.5" rx="2.00" fill="#D6995C" opacity="0.605"/>
    <rect x="376.8" y="372.4" width="4" height="25.2" rx="2.00" fill="#D6995C" opacity="0.627"/>
    <rect x="386.4" y="378.4" width="4" height="13.2" rx="2.00" fill="#D6995C" opacity="0.471"/>
    <rect x="396.0" y="364.5" width="4" height="41.0" rx="2.00" fill="#D6995C" opacity="0.831"/>
    <rect x="405.6" y="377.2" width="4" height="15.7" rx="2.00" fill="#D6995C" opacity="0.503"/>
    <rect x="415.2" y="369.6" width="4" height="30.9" rx="2.00" fill="#D6995C" opacity="0.700"/>
    <rect x="424.8" y="374.8" width="4" height="20.3" rx="2.00" fill="#D6995C" opacity="0.563"/>
    <rect x="434.4" y="371.2" width="4" height="27.5" rx="2.00" fill="#D6995C" opacity="0.657"/>
    <rect x="444.0" y="365.9" width="4" height="38.1" rx="2.00" fill="#D6995C" opacity="0.794"/>
    <rect x="453.6" y="369.0" width="4" height="32.0" rx="2.00" fill="#D6995C" opacity="0.715"/>
    <rect x="463.2" y="370.8" width="4" height="28.5" rx="2.00" fill="#D6995C" opacity="0.669"/>
    <rect x="472.8" y="362.2" width="4" height="45.6" rx="2.00" fill="#D6995C" opacity="0.891"/>
    <rect x="482.4" y="369.0" width="4" height="31.9" rx="2.00" fill="#D6995C" opacity="0.714"/>
    <rect x="492.0" y="362.3" width="4" height="45.5" rx="2.00" fill="#D6995C" opacity="0.889"/>
    <rect x="501.6" y="363.9" width="4" height="42.2" rx="2.00" fill="#D6995C" opacity="0.846"/>
    <rect x="511.2" y="359.9" width="4" height="50.2" rx="2.00" fill="#D6995C" opacity="0.950"/>
    <rect x="520.8" y="369.8" width="4" height="30.3" rx="2.00" fill="#D6995C" opacity="0.693"/>
    <rect x="530.4" y="371.0" width="4" height="28.1" rx="2.00" fill="#D6995C" opacity="0.664"/>
    <rect x="540.0" y="362.8" width="4" height="44.5" rx="2.00" fill="#D6995C" opacity="0.876"/>
    <rect x="549.6" y="368.2" width="4" height="33.7" rx="2.00" fill="#D6995C" opacity="0.736"/>
    <rect x="559.2" y="365.9" width="4" height="38.1" rx="2.00" fill="#D6995C" opacity="0.794"/>
    <rect x="568.8" y="370.4" width="4" height="29.3" rx="2.00" fill="#D6995C" opacity="0.679"/>
    <rect x="578.4" y="364.5" width="4" height="40.9" rx="2.00" fill="#D6995C" opacity="0.831"/>
    <rect x="588.0" y="364.5" width="4" height="41.1" rx="2.00" fill="#D6995C" opacity="0.832"/>
    <rect x="597.6" y="371.8" width="4" height="26.3" rx="2.00" fill="#D6995C" opacity="0.641"/>
    <rect x="607.2" y="362.3" width="4" height="45.5" rx="2.00" fill="#D6995C" opacity="0.889"/>
    <rect x="616.8" y="370.0" width="4" height="30.1" rx="2.00" fill="#D6995C" opacity="0.690"/>
    <rect x="626.4" y="361.9" width="4" height="46.3" rx="2.00" fill="#D6995C" opacity="0.900"/>
    <rect x="636.0" y="371.4" width="4" height="27.2" rx="2.00" fill="#D6995C" opacity="0.652"/>
    <rect x="645.6" y="360.6" width="4" height="48.8" rx="2.00" fill="#D6995C" opacity="0.933"/>
    <rect x="655.2" y="370.0" width="4" height="29.9" rx="2.00" fill="#D6995C" opacity="0.688"/>
    <rect x="664.8" y="370.1" width="4" height="29.8" rx="2.00" fill="#D6995C" opacity="0.686"/>
    <rect x="674.4" y="364.3" width="4" height="41.5" rx="2.00" fill="#D6995C" opacity="0.837"/>
    <rect x="684.0" y="377.6" width="4" height="14.7" rx="2.00" fill="#D6995C" opacity="0.491"/>
    <rect x="693.6" y="360.2" width="4" height="49.5" rx="2.00" fill="#D6995C" opacity="0.942"/>
    <rect x="703.2" y="370.5" width="4" height="28.9" rx="2.00" fill="#D6995C" opacity="0.675"/>
    <rect x="712.8" y="363.5" width="4" height="43.0" rx="2.00" fill="#D6995C" opacity="0.858"/>
    <rect x="722.4" y="369.0" width="4" height="32.1" rx="2.00" fill="#D6995C" opacity="0.716"/>
    <rect x="732.0" y="371.2" width="4" height="27.6" rx="2.00" fill="#D6995C" opacity="0.658"/>
    <rect x="741.6" y="360.7" width="4" height="48.6" rx="2.00" fill="#D6995C" opacity="0.930"/>
    <rect x="751.2" y="368.2" width="4" height="33.5" rx="2.00" fill="#D6995C" opacity="0.735"/>
    <rect x="760.8" y="363.9" width="4" height="42.3" rx="2.00" fill="#D6995C" opacity="0.848"/>
    <rect x="770.4" y="373.0" width="4" height="24.0" rx="2.00" fill="#D6995C" opacity="0.612"/>
    <rect x="780.0" y="375.5" width="4" height="19.0" rx="2.00" fill="#D6995C" opacity="0.546"/>
    <rect x="789.6" y="377.3" width="4" height="15.4" rx="2.00" fill="#D6995C" opacity="0.499"/>
    <rect x="799.2" y="377.9" width="4" height="14.3" rx="2.00" fill="#D6995C" opacity="0.485"/>
    <rect x="808.8" y="367.1" width="4" height="35.8" rx="2.00" fill="#D6995C" opacity="0.764"/>
    <rect x="818.4" y="367.9" width="4" height="34.3" rx="2.00" fill="#D6995C" opacity="0.744"/>
    <rect x="828.0" y="373.8" width="4" height="22.4" rx="2.00" fill="#D6995C" opacity="0.591"/>
    <rect x="837.6" y="372.5" width="4" height="25.0" rx="2.00" fill="#D6995C" opacity="0.624"/>
    <rect x="847.2" y="370.6" width="4" height="28.7" rx="2.00" fill="#D6995C" opacity="0.672"/>
    <rect x="856.8" y="362.7" width="4" height="44.6" rx="2.00" fill="#D6995C" opacity="0.878"/>
    <rect x="866.4" y="368.5" width="4" height="32.9" rx="2.00" fill="#D6995C" opacity="0.727"/>
    <rect x="876.0" y="366.3" width="4" height="37.3" rx="2.00" fill="#D6995C" opacity="0.784"/>
    <rect x="885.6" y="365.0" width="4" height="39.9" rx="2.00" fill="#D6995C" opacity="0.817"/>
    <rect x="895.2" y="370.0" width="4" height="30.0" rx="2.00" fill="#D6995C" opacity="0.689"/>
    <rect x="904.8" y="364.2" width="4" height="41.5" rx="2.00" fill="#D6995C" opacity="0.838"/>
    <rect x="914.4" y="373.5" width="4" height="22.9" rx="2.00" fill="#D6995C" opacity="0.597"/>
    <rect x="924.0" y="376.8" width="4" height="16.5" rx="2.00" fill="#D6995C" opacity="0.513"/>
    <rect x="933.6" y="369.8" width="4" height="30.4" rx="2.00" fill="#D6995C" opacity="0.694"/>
    <rect x="943.2" y="374.2" width="4" height="21.6" rx="2.00" fill="#D6995C" opacity="0.580"/>
    <rect x="952.8" y="374.2" width="4" height="21.6" rx="2.00" fill="#D6995C" opacity="0.580"/>
    <rect x="962.4" y="375.2" width="4" height="19.7" rx="2.00" fill="#D6995C" opacity="0.555"/>
    <rect x="972.0" y="373.5" width="4" height="23.0" rx="2.00" fill="#D6995C" opacity="0.598"/>
    <rect x="981.6" y="379.4" width="4" height="11.2" rx="2.00" fill="#D6995C" opacity="0.445"/>
    <rect x="991.2" y="375.3" width="4" height="19.3" rx="2.00" fill="#D6995C" opacity="0.551"/>
    <rect x="1000.8" y="369.6" width="4" height="30.9" rx="2.00" fill="#D6995C" opacity="0.700"/>
    <rect x="1010.4" y="378.2" width="4" height="13.5" rx="2.00" fill="#D6995C" opacity="0.475"/>
    <rect x="1020.0" y="367.9" width="4" height="34.2" rx="2.00" fill="#D6995C" opacity="0.743"/>
    <rect x="1029.6" y="368.4" width="4" height="33.1" rx="2.00" fill="#D6995C" opacity="0.730"/>
    <rect x="1039.2" y="376.8" width="4" height="16.4" rx="2.00" fill="#D6995C" opacity="0.512"/>
    <rect x="1048.8" y="379.0" width="4" height="11.9" rx="2.00" fill="#D6995C" opacity="0.455"/>
    <rect x="1058.4" y="377.1" width="4" height="15.7" rx="2.00" fill="#D6995C" opacity="0.504"/>
    <rect x="1068.0" y="370.9" width="4" height="28.3" rx="2.00" fill="#D6995C" opacity="0.667"/>
    <rect x="1077.6" y="380.0" width="4" height="10.0" rx="2.00" fill="#D6995C" opacity="0.430"/>
    <rect x="1087.2" y="374.7" width="4" height="20.5" rx="2.00" fill="#D6995C" opacity="0.566"/>
    <rect x="1096.8" y="378.3" width="4" height="13.5" rx="2.00" fill="#D6995C" opacity="0.475"/>
    <rect x="1106.4" y="378.0" width="4" height="14.1" rx="2.00" fill="#D6995C" opacity="0.482"/>
    <rect x="1116.0" y="374.5" width="4" height="21.0" rx="2.00" fill="#D6995C" opacity="0.572"/>
    <rect x="1125.6" y="379.7" width="4" height="10.6" rx="2.00" fill="#D6995C" opacity="0.437"/>
    <rect x="1135.2" y="377.5" width="4" height="15.0" rx="2.00" fill="#D6995C" opacity="0.495"/>
    <rect x="1144.8" y="379.8" width="4" height="10.4" rx="2.00" fill="#D6995C" opacity="0.435"/>
    <rect x="1154.4" y="379.6" width="4" height="10.9" rx="2.00" fill="#D6995C" opacity="0.441"/>
    <rect x="1164.0" y="382.0" width="4" height="6.0" rx="2.00" fill="#D6995C" opacity="0.377"/>
    <rect x="1173.6" y="383.0" width="4" height="4.0" rx="2.00" fill="#D6995C" opacity="0.328"/>
    <rect x="1183.2" y="383.0" width="4" height="4.0" rx="2.00" fill="#D6995C" opacity="0.300"/>

  </g>
</svg>
