<svg xmlns="http://www.w3.org/2000/svg" viewBox="0 0 900 300" width="900" height="300" role="img" aria-label="Hyperwisper overlay — Recording">
  <title>Hyperwisper overlay — Recording</title>
  <defs>
    <linearGradient id="desk" x1="0" y1="0" x2="1" y2="1">
      <stop offset="0%" stop-color="#100E0C"/>
      <stop offset="100%" stop-color="#1A1613"/>
    </linearGradient>
    <linearGradient id="pillsheen" x1="0" y1="0" x2="0" y2="1">
      <stop offset="0%"  stop-color="#FFF0DC" stop-opacity="0.06"/>
      <stop offset="45%" stop-color="#FFF0DC" stop-opacity="0"/>
    </linearGradient>
  </defs>

  <rect width="900" height="300" rx="20" fill="url(#desk)"/>
  <text x="450" y="42" font-family="'Cascadia Code', 'SF Mono', Consolas, 'Liberation Mono', monospace" font-size="14" fill="#988F86" text-anchor="middle" letter-spacing="1.6">RECORDING</text>

  <rect x="110" y="88" width="680" height="116" rx="34" fill="#000" opacity="0.42"/>
  <rect x="110" y="78" width="680" height="116" rx="34" fill="#1C1815" fill-opacity="0.96"/>
  <rect x="110" y="78" width="680" height="116" rx="34" fill="url(#pillsheen)"/>
  <rect x="110.5" y="78.5" width="679" height="115" rx="33.5" fill="none" stroke="#FFF5E6" stroke-opacity="0.09"/>

  <circle cx="156" cy="136" r="16" fill="#E2685A" opacity="0.16"/>
  <circle cx="156" cy="136" r="8" fill="#E2685A"/>
  <g>
    <rect x="196.0" y="125.3" width="5" height="21.5" rx="2.50" fill="#E7C49A" opacity="0.543"/>
    <rect x="207.4" y="122.8" width="5" height="26.5" rx="2.50" fill="#E7C49A" opacity="0.599"/>
    <rect x="218.8" y="124.0" width="5" height="24.0" rx="2.50" fill="#E7C49A" opacity="0.571"/>
    <rect x="230.2" y="113.3" width="5" height="45.4" rx="2.50" fill="#E7C49A" opacity="0.813"/>
    <rect x="241.6" y="120.3" width="5" height="31.4" rx="2.50" fill="#E7C49A" opacity="0.655"/>
    <rect x="253.0" y="114.2" width="5" height="43.6" rx="2.50" fill="#E7C49A" opacity="0.792"/>
    <rect x="264.4" y="127.8" width="5" height="16.5" rx="2.50" fill="#E7C49A" opacity="0.486"/>
    <rect x="275.8" y="116.2" width="5" height="39.6" rx="2.50" fill="#E7C49A" opacity="0.747"/>
    <rect x="287.2" y="105.8" width="5" height="60.4" rx="2.50" fill="#E7C49A" opacity="0.982"/>
    <rect x="298.6" y="105.7" width="5" height="60.6" rx="2.50" fill="#E7C49A" opacity="0.984"/>
    <rect x="310.0" y="114.1" width="5" height="43.8" rx="2.50" fill="#E7C49A" opacity="0.794"/>
    <rect x="321.4" y="111.7" width="5" height="48.6" rx="2.50" fill="#E7C49A" opacity="0.849"/>
    <rect x="332.8" y="125.9" width="5" height="20.2" rx="2.50" fill="#E7C49A" opacity="0.528"/>
    <rect x="344.2" y="110.8" width="5" height="50.3" rx="2.50" fill="#E7C49A" opacity="0.868"/>
    <rect x="355.6" y="123.6" width="5" height="24.7" rx="2.50" fill="#E7C49A" opacity="0.579"/>
    <rect x="367.0" y="127.2" width="5" height="17.5" rx="2.50" fill="#E7C49A" opacity="0.498"/>
    <rect x="378.4" y="122.1" width="5" height="27.8" rx="2.50" fill="#E7C49A" opacity="0.614"/>
    <rect x="389.8" y="112.5" width="5" height="47.0" rx="2.50" fill="#E7C49A" opacity="0.831"/>
    <rect x="401.2" y="119.4" width="5" height="33.2" rx="2.50" fill="#E7C49A" opacity="0.674"/>
    <rect x="412.6" y="116.4" width="5" height="39.2" rx="2.50" fill="#E7C49A" opacity="0.743"/>
    <rect x="424.0" y="123.1" width="5" height="25.9" rx="2.50" fill="#E7C49A" opacity="0.592"/>
    <rect x="435.4" y="108.3" width="5" height="55.5" rx="2.50" fill="#E7C49A" opacity="0.926"/>
    <rect x="446.8" y="125.8" width="5" height="20.4" rx="2.50" fill="#E7C49A" opacity="0.530"/>
    <rect x="458.2" y="121.0" width="5" height="29.9" rx="2.50" fill="#E7C49A" opacity="0.638"/>
    <rect x="469.6" y="117.9" width="5" height="36.3" rx="2.50" fill="#E7C49A" opacity="0.709"/>
    <rect x="481.0" y="117.8" width="5" height="36.3" rx="2.50" fill="#E7C49A" opacity="0.710"/>
    <rect x="492.4" y="118.1" width="5" height="35.8" rx="2.50" fill="#E7C49A" opacity="0.704"/>
    <rect x="503.8" y="127.3" width="5" height="17.5" rx="2.50" fill="#E7C49A" opacity="0.497"/>
    <rect x="515.2" y="117.5" width="5" height="37.1" rx="2.50" fill="#E7C49A" opacity="0.719"/>
    <rect x="526.6" y="111.1" width="5" height="49.7" rx="2.50" fill="#E7C49A" opacity="0.861"/>
    <rect x="538.0" y="121.3" width="5" height="29.4" rx="2.50" fill="#E7C49A" opacity="0.632"/>
    <rect x="549.4" y="105.7" width="5" height="60.7" rx="2.50" fill="#E7C49A" opacity="0.985"/>
    <rect x="560.8" y="111.9" width="5" height="48.3" rx="2.50" fill="#E7C49A" opacity="0.845"/>
    <rect x="572.2" y="123.1" width="5" height="25.9" rx="2.50" fill="#E7C49A" opacity="0.592"/>
    <rect x="583.6" y="118.8" width="5" height="34.4" rx="2.50" fill="#E7C49A" opacity="0.689"/>
    <rect x="595.0" y="122.3" width="5" height="27.5" rx="2.50" fill="#E7C49A" opacity="0.610"/>

  </g>
  <text x="650" y="144" font-family="'Cascadia Code', 'SF Mono', Consolas, 'Liberation Mono', monospace" font-size="24" fill="#C9BFB4" text-anchor="middle">0:07</text>
  <g transform="translate(748 136)">
    <circle r="19" fill="none" stroke="#312B26" stroke-width="1.5"/>
    <path d="M-6 -6 L6 6 M6 -6 L-6 6" stroke="#988F86" stroke-width="2.2" stroke-linecap="round"/>
  </g>
  <text x="450" y="276" font-family="'Segoe UI', -apple-system, BlinkMacSystemFont, 'Helvetica Neue', Inter, system-ui, sans-serif" font-size="15" fill="#988F86" text-anchor="middle">Floats above every window · drag to reposition · Esc to cancel</text>
</svg>
